<svg xmlns="http://www.w3.org/2000/svg" width="14" height="14" viewBox="0 0 14 14">
  <path fill="#343E51" d="M20.6551231,14 C17.5383839,14 15,16.5383637 15,19.6551305 C15,22.7718571 17.5383659,25.3102628 20.6551231,25.3102628 C22.0171137,25.3102628 23.2690485,24.8221156 24.2465822,24.0161865 L27.5644064,27.3397249 C27.7780971,27.5534159 28.1259957,27.5534341 28.3397046,27.3397249 C28.5534318,27.1260157 28.5534318,26.778134 28.3397046,26.5644248 L25.0161716,23.2465962 C25.8220996,22.2690431 26.3102462,21.0171249 26.3102462,19.6551305 C26.3102462,16.5383619 23.7718437,14 20.6551231,14 Z M20.6551231,15.0945414 C23.1803178,15.0945414 25.2157061,17.1299031 25.2157061,19.6551305 C25.2157061,22.1803122 23.1802996,24.2157214 20.6551229,24.2157214 C18.129928,24.2157214 16.0945398,22.1803122 16.0945398,19.6551305 C16.0945398,17.1299013 18.1299098,15.0945414 20.6551229,15.0945414 L20.6551231,15.0945414 Z" transform="translate(-15 -14)"/>
</svg>
